<?xml version="1.0" encoding="UTF-8" standalone="no"?>
<svg width="12px" height="16px" viewBox="0 0 12 16" version="1.1" xmlns="http://www.w3.org/2000/svg" xmlns:xlink="http://www.w3.org/1999/xlink" xmlns:sketch="http://www.bohemiancoding.com/sketch/ns">
    <!-- Generator: Sketch 3.1.1 (8761) - http://www.bohemiancoding.com/sketch -->
    <title>20141219113759368_easyicon_net</title>
    <desc>Created with Sketch.</desc>
    <defs></defs>
    <g id="Page-1" stroke="none" stroke-width="1" fill="none" fill-rule="evenodd" sketch:type="MSPage">
        <g id="20141219113759368_easyicon_net" sketch:type="MSLayerGroup" fill="#96DADA">
            <path d="M11,16 L1,16 C0.448,16 0,15.553 0,15 L0,8 C0,7.448 0.448,7 1,7 L1,5 C1,2.238 3.239,0 6,0 C8.762,0 11,2.238 11,5 L11,7 C11.553,7 12,7.448 12,8 L12,15 C12,15.553 11.553,16 11,16 L11,16 Z M9,5 C9,3.343 7.656,2 6,2 C4.343,2 3,3.343 3,5 L3,7 L9,7 L9,5 L9,5 Z M10,9 L2,9 L2,14 L10,14 L10,9 L10,9 Z" id="Shape" sketch:type="MSShapeGroup"></path>
        </g>
    </g>
</svg>