<?xml version="1.0" encoding="UTF-8" standalone="no"?>
<svg width="15px" height="16px" viewBox="0 0 15 16" version="1.1" xmlns="http://www.w3.org/2000/svg" xmlns:xlink="http://www.w3.org/1999/xlink" xmlns:sketch="http://www.bohemiancoding.com/sketch/ns">
    <!-- Generator: Sketch 3.1.1 (8761) - http://www.bohemiancoding.com/sketch -->
    <title>20141219113611417_easyicon_net</title>
    <desc>Created with Sketch.</desc>
    <defs></defs>
    <g id="Page-1" stroke="none" stroke-width="1" fill="none" fill-rule="evenodd" sketch:type="MSPage">
        <g id="20141219113611417_easyicon_net" sketch:type="MSLayerGroup" fill="#96DADA">
            <path d="M15,16 L0,16 C0,14.0704 2.26714286,12.4586667 5.35714286,11.9317333 L5.35714286,11.1424 C4.08214286,10.4021333 3.21428571,9.04213333 3.21428571,7.46666667 L3.21428571,7.35893333 C2.59285714,7.13706667 2.14285714,6.56106667 2.14285714,5.86666667 C2.14285714,5.17226667 2.59285714,4.59626667 3.21428571,4.3744 L3.21428571,4.26666667 C3.21428571,1.9104 5.13321429,0 7.5,0 C9.86678571,0 11.7857143,1.9104 11.7857143,4.26666667 L11.7857143,4.3744 C12.4071429,4.59626667 12.8571429,5.17226667 12.8571429,5.86666667 C12.8571429,6.56106667 12.4071429,7.13706667 11.7857143,7.35893333 L11.7857143,7.46666667 C11.7857143,9.04213333 10.9178571,10.4021333 9.64285714,11.1413333 L9.64285714,11.9306667 C12.7339286,12.4586667 15,14.0704 15,16 L15,16 Z" id="Shape" sketch:type="MSShapeGroup"></path>
        </g>
    </g>
</svg>